REM DIRINDEX 1\2,1\3,1\4,1\5
REM DIRNAME folder01,folder02,folder03,folder04,folder05
TITLE ""
FILE "113.mp3" MP3
  TRACK 01 AUDIO
    TITLE "0:"
    INDEX 01 00:00:00
  TRACK 02 AUDIO
    TITLE "2:cjc046_2595"
    INDEX 01 00:00:15
  TRACK 03 AUDIO
    TITLE "0:"
    INDEX 01 00:01:36
  TRACK 04 AUDIO
    TITLE "3:cjc046_2596"
    INDEX 01 00:01:54
  TRACK 05 AUDIO
    TITLE "0:"
    INDEX 01 00:03:02
  TRACK 06 AUDIO
    TITLE "4:cjc046_2597"
    INDEX 01 00:03:15
  TRACK 07 AUDIO
    TITLE "0:"
    INDEX 01 00:04:33
  TRACK 08 AUDIO
    TITLE "2:cjc046_2598"
    INDEX 01 00:05:44
  TRACK 09 AUDIO
    TITLE "0:"
    INDEX 01 00:06:59
  TRACK 10 AUDIO
    TITLE "3:cjc046_2599"
    INDEX 01 00:07:13
  TRACK 11 AUDIO
    TITLE "0:"
    INDEX 01 00:08:32
  TRACK 12 AUDIO
    TITLE "4:cjc046_2600"
    INDEX 01 00:08:40
  TRACK 13 AUDIO
    TITLE "0:"
    INDEX 01 00:09:59
  TRACK 14 AUDIO
    TITLE "2:cjc046_2601"
    INDEX 01 00:10:70
  TRACK 15 AUDIO
    TITLE "0:"
    INDEX 01 00:11:68
  TRACK 16 AUDIO
    TITLE "3:cjc046_2602"
    INDEX 01 00:12:22
  TRACK 17 AUDIO
    TITLE "0:"
    INDEX 01 00:13:18
  TRACK 18 AUDIO
    TITLE "4:cjc046_2603"
    INDEX 01 00:13:30
  TRACK 19 AUDIO
    TITLE "0:"
    INDEX 01 00:14:27
  TRACK 20 AUDIO
    TITLE "2:cjc046_2604"
    INDEX 01 00:15:34
  TRACK 21 AUDIO
    TITLE "0:"
    INDEX 01 00:16:48
  TRACK 22 AUDIO
    TITLE "3:cjc046_2605"
    INDEX 01 00:16:71
  TRACK 23 AUDIO
    TITLE "0:"
    INDEX 01 00:18:21
  TRACK 24 AUDIO
    TITLE "4:cjc046_2606"
    INDEX 01 00:18:31
  TRACK 25 AUDIO
    TITLE "0:"
    INDEX 01 00:19:42
  TRACK 26 AUDIO
    TITLE "2:cjc046_2607"
    INDEX 01 00:20:51
  TRACK 27 AUDIO
    TITLE "0:"
    INDEX 01 00:21:47
  TRACK 28 AUDIO
    TITLE "3:cjc046_2608"
    INDEX 01 00:21:74
  TRACK 29 AUDIO
    TITLE "0:"
    INDEX 01 00:22:66
  TRACK 30 AUDIO
    TITLE "4:cjc046_2609"
    INDEX 01 00:23:06
  TRACK 31 AUDIO
    TITLE "0:"
    INDEX 01 00:24:02
  TRACK 32 AUDIO
    TITLE "2:cjc046_2610"
    INDEX 01 00:25:11
  TRACK 33 AUDIO
    TITLE "0:"
    INDEX 01 00:26:24
  TRACK 34 AUDIO
    TITLE "3:cjc046_2611"
    INDEX 01 00:26:46
  TRACK 35 AUDIO
    TITLE "0:"
    INDEX 01 00:28:45
  TRACK 36 AUDIO
    TITLE "4:cjc046_2612"
    INDEX 01 00:28:62
  TRACK 37 AUDIO
    TITLE "0:"
    INDEX 01 00:29:72
  TRACK 38 AUDIO
    TITLE "2:cjc046_2613"
    INDEX 01 00:31:02
  TRACK 39 AUDIO
    TITLE "0:"
    INDEX 01 00:32:09
  TRACK 40 AUDIO
    TITLE "3:cjc046_2614"
    INDEX 01 00:32:31
  TRACK 41 AUDIO
    TITLE "0:"
    INDEX 01 00:33:32
  TRACK 42 AUDIO
    TITLE "4:cjc046_2615"
    INDEX 01 00:33:46
  TRACK 43 AUDIO
    TITLE "0:"
    INDEX 01 00:34:53
  TRACK 44 AUDIO
    TITLE "2:cjc046_2616"
    INDEX 01 00:35:63
  TRACK 45 AUDIO
    TITLE "0:"
    INDEX 01 00:37:14
  TRACK 46 AUDIO
    TITLE "3:cjc046_2617"
    INDEX 01 00:37:30
  TRACK 47 AUDIO
    TITLE "0:"
    INDEX 01 00:39:21
  TRACK 48 AUDIO
    TITLE "4:cjc046_2618"
    INDEX 01 00:39:33
  TRACK 49 AUDIO
    TITLE "0:"
    INDEX 01 00:40:60
  TRACK 50 AUDIO
    TITLE "2:cjc046_2619"
    INDEX 01 00:41:67
  TRACK 51 AUDIO
    TITLE "0:"
    INDEX 01 00:43:03
  TRACK 52 AUDIO
    TITLE "3:cjc046_2620"
    INDEX 01 00:43:29
  TRACK 53 AUDIO
    TITLE "0:"
    INDEX 01 00:44:48
  TRACK 54 AUDIO
    TITLE "4:cjc046_2621"
    INDEX 01 00:44:60
  TRACK 55 AUDIO
    TITLE "0:"
    INDEX 01 00:45:69
  TRACK 56 AUDIO
    TITLE "2:cjc046_2622"
    INDEX 01 00:47:03
  TRACK 57 AUDIO
    TITLE "0:"
    INDEX 01 00:48:10
  TRACK 58 AUDIO
    TITLE "3:cjc046_2623"
    INDEX 01 00:48:28
  TRACK 59 AUDIO
    TITLE "0:"
    INDEX 01 00:49:25
  TRACK 60 AUDIO
    TITLE "4:cjc046_2624"
    INDEX 01 00:49:41
  TRACK 61 AUDIO
    TITLE "0:"
    INDEX 01 00:50:48
  TRACK 62 AUDIO
    TITLE "2:cjc046_2625"
    INDEX 01 00:51:56
  TRACK 63 AUDIO
    TITLE "0:"
    INDEX 01 00:53:00
  TRACK 64 AUDIO
    TITLE "3:cjc046_2626"
    INDEX 01 00:53:21
  TRACK 65 AUDIO
    TITLE "0:"
    INDEX 01 00:54:34
  TRACK 66 AUDIO
    TITLE "4:cjc046_2627"
    INDEX 01 00:54:48
  TRACK 67 AUDIO
    TITLE "0:"
    INDEX 01 00:55:69
  TRACK 68 AUDIO
    TITLE "2:cjc046_2628"
    INDEX 01 00:57:01
  TRACK 69 AUDIO
    TITLE "0:"
    INDEX 01 00:58:09
  TRACK 70 AUDIO
    TITLE "3:cjc046_2629"
    INDEX 01 00:58:36
  TRACK 71 AUDIO
    TITLE "0:"
    INDEX 01 00:59:24
  TRACK 72 AUDIO
    TITLE "4:cjc046_2630"
    INDEX 01 00:59:41
  TRACK 73 AUDIO
    TITLE "0:"
    INDEX 01 01:00:47
  TRACK 74 AUDIO
    TITLE "2:cjc046_2631"
    INDEX 01 01:01:60
  TRACK 75 AUDIO
    TITLE "0:"
    INDEX 01 01:02:67
  TRACK 76 AUDIO
    TITLE "3:cjc046_2632"
    INDEX 01 01:03:10
  TRACK 77 AUDIO
    TITLE "0:"
    INDEX 01 01:04:29
  TRACK 78 AUDIO
    TITLE "4:cjc046_2633"
    INDEX 01 01:04:45
  TRACK 79 AUDIO
    TITLE "0:"
    INDEX 01 01:05:50
  TRACK 80 AUDIO
    TITLE "2:cjc046_2634"
    INDEX 01 01:06:61
  TRACK 81 AUDIO
    TITLE "0:"
    INDEX 01 01:08:01
  TRACK 82 AUDIO
    TITLE "3:cjc046_2635"
    INDEX 01 01:08:27
  TRACK 83 AUDIO
    TITLE "0:"
    INDEX 01 01:09:20
  TRACK 84 AUDIO
    TITLE "4:cjc046_2636"
    INDEX 01 01:09:36
  TRACK 85 AUDIO
    TITLE "0:"
    INDEX 01 01:10:51
  TRACK 86 AUDIO
    TITLE "2:cjc046_2637"
    INDEX 01 01:11:60
  TRACK 87 AUDIO
    TITLE "0:"
    INDEX 01 01:12:62
  TRACK 88 AUDIO
    TITLE "3:cjc046_2638"
    INDEX 01 01:13:08
  TRACK 89 AUDIO
    TITLE "0:"
    INDEX 01 01:14:33
  TRACK 90 AUDIO
    TITLE "4:cjc046_2639"
    INDEX 01 01:14:49
  TRACK 91 AUDIO
    TITLE "0:"
    INDEX 01 01:15:50
